# xmcd
#
# Track frame offsets: 
#        150
#        13955
#        25282
#        43702
#        56000
#        77852
#        92740
#        119177
#        137215
#        156267
#        176535
#        189222
#        202967
#        217615
#        236720
#        253442
#        271375
#
# Disc length: 3726 seconds
#
# Revision: 3
# Processed by: cddbd v1.5PL3 Copyright (c) Steve Scherf et al.
# Submitted via: ExactAudioCopy v0.95a3
#
DISCID=f80e8c11
DTITLE=Various Artist - American Folk Blues Festival '62-'65 - Highlights
DYEAR=1997
DGENRE=Blues
TTITLE0=Mississippi Fred McDowell - Highway 61
TTITLE1=Lightnin' Hopkins - Baby Please Don't Go
TTITLE2=John Lee Hooker - Della Mae
TTITLE3=Memphis Slim - Wish Me Well
TTITLE4=Muddy Waters - Five Long Years
TTITLE5=Big Mama Thornton - Hound Dog
TTITLE6=Howlin' Wolf - Dust My Broom
TTITLE7=T-Bone Walker - I'm In Love
TTITLE8=Sunnyland Slim - Everytime I Get To Drinkin'
TTITLE9=Buddy Guy - First Time I Met The Blues
TTITLE10=Sugar Pie DeSanto - Slip-In Mules
TTITLE11=Shakey Jake - Love My Baby
TTITLE12=Eddie Boyd - Five Long Years
TTITLE13=Sonny Boy Williamson - Dissatisfied
TTITLE14=Otis Spann - Goin' Down Slow
TTITLE15=Brownie McGhee - Crying At The Station
TTITLE16=J.B. Lenoir - Slow Down Woman
EXTD=
EXTT0=
EXTT1=
EXTT2=
EXTT3=
EXTT4=
EXTT5=
EXTT6=
EXTT7=
EXTT8=
EXTT9=
EXTT10=
EXTT11=
EXTT12=
EXTT13=
EXTT14=
EXTT15=
EXTT16=
PLAYORDER=
